<?xml version="1.0" encoding="utf-8"?>
<!-- Generator: Adobe Illustrator 21.0.0, SVG Export Plug-In . SVG Version: 6.00 Build 0)  -->
<svg version="1.1" id="Calque_1" xmlns="http://www.w3.org/2000/svg" xmlns:xlink="http://www.w3.org/1999/xlink" x="0px" y="0px"
	 viewBox="0 0 2000 976" style="enable-background:new 0 0 2000 976;" xml:space="preserve">
<style type="text/css">
	.st0{fill:#FFFFFF;}
</style>
<g>
	<path d="M0,569C0,379.3,0,189.7,0,0c666.7,0,1333.3,0,2000,0c0,189.7,0,379.3,0,569c-1.8,0-3.7,0.1-5.5,0.1c-663,0-1326,0-1989,0
		C3.7,569,1.8,569,0,569z M1058,120.1c-19.9,79.8-39.7,159.5-59.6,239.2c-0.4-0.1-0.7-0.1-1.1-0.2c-19.8-79.7-39.7-159.4-59.5-238.9
		c-34.9,0-69.3,0-103.5,0c0,111.1,0,221.9,0,332.6c22.7,0,44.9,0,67.2,0c0-86.5,0-172.7,0-260.3c0.8,3,1.2,4.7,1.7,6.5
		c21.4,82.8,42.7,165.6,64,248.4c1.1,4.2,2.5,5.9,7.2,5.8c15.8-0.4,31.7-0.4,47.5,0c4.7,0.1,6.1-1.5,7.2-5.8
		c21.1-83,42.4-166,63.7-249c0.4-1.5,0.9-3.1,1.8-6c0,87.7,0,173.9,0,260.3c22.5,0,44.7,0,67.2,0c0-111,0-221.7,0-332.7
		C1127.2,120.1,1093,120.1,1058,120.1z M1239.3,453.4c1.8,0.1,3.3,0.3,4.8,0.3c35.8,0,71.7,0.3,107.5-0.2c13.4-0.2,27-1.4,40.2-3.7
		c20.9-3.7,39.6-12.4,54.5-28.1c31.6-33.2,35.7-111.5-32.4-139.6c-4.2-1.7-8.5-3.1-13.5-4.9c2.5-0.9,4.1-1.5,5.9-2
		c32.7-10.1,60.3-36.7,56.7-81.7c-2.4-30.2-16.4-52.3-44.9-64.1c-16.9-7-34.7-9.4-52.8-9.4c-40.7-0.1-81.3-0.1-122-0.1
		c-1.3,0-2.6,0.2-4,0.3C1239.3,231.2,1239.3,342,1239.3,453.4z M1515,286c0.3,31.8,3.2,63.1,14,93.1c17.2,47.4,48.7,77.2,101.1,80.3
		c29,1.8,56.1-4.1,79.3-22.7c20.9-16.8,33.4-39.2,40.6-64.5c15.1-52.8,15.2-106.2,3.4-159.6c-5.4-24.3-15.4-46.7-32-65.8
		c-34.8-39.9-95.7-41.8-133.1-24.3c-28.5,13.3-45.9,36.7-57.2,65.2C1518.6,219.3,1515.4,252.5,1515,286z M772.1,296.3
		c0-39-2.7-67.6-11.2-95.5c-7.2-23.6-18-45.3-36.8-61.9c-30.6-26.9-66.7-31.7-105-23.2c-36,8-59.1,31.7-74,64.4
		c-12.2,26.8-17.1,55.2-18.6,84.4c-2,37,0,73.6,11.4,109.2c8.1,25.2,20.2,48.2,42,64.1c35.5,26.1,74.8,28,114.9,13.4
		c30.8-11.2,49.2-35.5,61-65.1C768.7,354,772,320.3,772.1,296.3z M479.4,230c-1.9-14.4-2.8-28.3-5.8-41.7
		c-7.5-33.7-26.2-58.6-59.4-71c-13.9-5.2-28.3-7.3-43.1-7.9c-29.9-1.1-57.7,4.9-81.3,24.4c-18.5,15.3-30.1,35.3-37.9,57.7
		c-11.6,33.6-14.1,68.3-13.2,103.5c0.8,30.5,4.8,60.4,16.3,88.9c13.1,32.2,34.2,56.6,68.3,67.5c22.6,7.3,45.7,7.3,68.7,3.2
		c37.9-6.7,66.2-26.2,80.5-63.1c6.1-15.8,8.6-32.3,8.3-49.4c-25.1,0-49.6,0-74.5,0c-0.1,2.6,0,5-0.4,7.2c-1.7,9.3-2.5,18.9-5.5,27.8
		c-4.3,12.6-13.9,20-27.4,21.8c-22.4,3-38.5-5.7-48.2-26.3c-6.7-14.2-9.5-29.4-11-44.9c-3.2-31.4-2.9-62.9,0.1-94.3
		c1.6-16.1,4.3-32.1,12.6-46.4c9.3-16,23.8-21.7,41.5-20c17.2,1.6,26.4,12.6,31.2,28.2c0.7,2.2,1.4,4.5,1.7,6.8
		c1.2,9.2,2.2,18.4,3.4,27.8C428.8,230,453.2,230,479.4,230z"/>
	<path class="st0" d="M0,569c1.8,0,3.7,0.1,5.5,0.1c663,0,1326,0,1989,0c1.8,0,3.7,0,5.5-0.1c0,135.7,0,271.3,0,407
		c-666.7,0-1333.3,0-2000,0C0,840.3,0,704.6,0,569z M750.8,962.2c0-59.6,0-118.7,0-177.9c-13.5,0-26.6,0-39.8,0
		c-7.5,38.9-14.9,77.5-22.3,116.1c-2.9-9.9-4.8-19.8-6.7-29.7c-5.3-27.8-10.6-55.6-16.1-83.3c-0.2-1.3-1.7-3.2-2.7-3.3
		c-12.6-0.2-25.2-0.1-37.9-0.1c0,59.7,0,118.8,0,178.1c9.2,0,18.1,0,27.4,0c0-48.1,0-95.8,0-143.6c3.4,12.4,5.8,24.9,8.3,37.4
		c4.6,23.9,9.2,47.7,14,71.5c0.3,1.4,1.8,3.6,2.9,3.6c7.6,0.3,15.3,0.2,23.2,0.2c7.4-38.2,14.7-76,22-113.7c0.3,0,0.7,0.1,1,0.1
		c0,48.1,0,96.2,0,144.6C733.1,962.2,741.7,962.2,750.8,962.2z M1070.5,837.8c1-27.9-14.3-48.7-40.7-55.3
		c-16.9-4.2-33.8-3.7-50.3,1.8c-15.6,5.2-27.6,14.7-32.6,31.1c-7.3,24.1,2.6,48.4,25.1,59.5c9.8,4.8,20.6,7.5,30.9,11.1
		c9.5,3.3,19.4,6,28.5,10.2c8.4,3.8,11.7,11.4,10.8,20.7c-1,10.4-6.6,17.1-16,21.1c-7.9,3.3-16.2,3.7-24.5,3
		c-16.7-1.2-28.6-11.8-31.7-28.2c-0.7-3.9-1-7.8-1.5-11.5c-9.9,0-19.4,0-29.2,0c0.3,3.9,0.4,7.4,0.8,10.9
		c2.7,23.4,13.4,41.2,36.5,49c21.9,7.5,44.1,6.8,65.4-2.4c18.8-8.1,28.8-22.9,29.2-43.7c0.4-21.7-8.8-37.7-29-46.2
		c-9.9-4.1-20.5-6.6-30.8-10c-8.6-2.9-17.5-5.5-25.6-9.5c-8.9-4.4-12.6-12.5-11.6-22.5c0.9-9.4,6.3-15.6,14.8-19.1
		c9.6-3.9,19.5-4.2,29.4-2.1c12.5,2.6,19.6,10.3,21.8,22.9c0.5,2.9,0.8,5.9,1.3,9.1C1051,837.8,1060.6,837.8,1070.5,837.8z
		 M783.4,784.1c0,2.4,0,4.3,0,6.3c0,35.6,0,71.3,0,106.9c0,5.8,0.2,11.7,0.6,17.5c1.9,27.3,16.7,44.6,43,49.6
		c13.2,2.6,26.5,2.2,39.7-0.9c18.9-4.6,31.2-16.2,35.5-35.2c1.9-8.4,2.8-17.1,2.8-25.7c0.3-37.6,0.1-75.3,0.1-112.9
		c0-1.8,0-3.5,0-5.4c-9.5,0-18.4,0-27.6,0c0,2.4,0,4.3,0,6.3c0,36.8,0,73.6,0,110.4c0,4.5-0.2,9-0.6,13.5
		c-1.4,15.1-8.5,23.7-22.5,25.8c-7,1-14.3,0.7-21.3-0.3c-11.3-1.6-18.1-8.8-20.2-19.9c-1.1-6.2-1.7-12.5-1.7-18.8
		c-0.2-37.1-0.1-74.3-0.1-111.4c0-1.9,0-3.8,0-5.8C801.6,784.1,793,784.1,783.4,784.1z M1346.7,905c-0.2,2.3-0.4,4.1-0.6,5.9
		c-1.4,15.3-10.4,25.9-24.2,28.6c-15.1,2.9-28.4-3.4-35.4-17.2c-1.9-3.8-3.5-8-4.5-12.1c-4.7-18.3-4.7-36.9-3.4-55.6
		c0.8-11.8,2.6-23.5,8.2-34.2c6.4-12.1,17.4-18.3,30.2-17.1c13.3,1.3,22.1,8.8,25.9,22.6c1.4,4.9,1.9,10,2.9,15.3
		c9.2,0,18.5,0,28.5,0c-0.5-5.2-0.6-10.2-1.4-15.1c-3.3-19.8-12.7-35.7-32.3-42.9c-27.8-10.2-68.3-7.1-83.7,36.8
		c-11.9,33.9-12,68.5-0.2,102.5c15.8,45.7,58,47.8,85.7,37.1c21.2-8.2,36-33.9,32-54.6C1365.4,905,1356.3,905,1346.7,905z
		 M1094.1,962c41.5,0,82.5,0,123.6,0c0-8.2,0-15.9,0-24.3c-16,0-31.7,0-47.4,0c0-43.3,0-86,0-129.2c16,0,31.6,0,47.4,0
		c0-8.3,0-16.2,0-24.2c-41.4,0-82.4,0-123.5,0c0,8.2,0,16.1,0,24.6c16.1,0,31.8,0,47.4,0c0,43.3,0,86,0,129.1c-16,0-31.6,0-47.5,0
		C1094.1,946.1,1094.1,953.9,1094.1,962z"/>
	<path class="st0" d="M1058,120.1c35,0,69.2,0,103.7,0c0,111,0,221.7,0,332.7c-22.5,0-44.7,0-67.2,0c0-86.5,0-172.6,0-260.3
		c-0.9,2.9-1.4,4.4-1.8,6c-21.3,83-42.6,166-63.7,249c-1.1,4.2-2.5,5.9-7.2,5.8c-15.8-0.4-31.7-0.4-47.5,0c-4.7,0.1-6.2-1.6-7.2-5.8
		c-21.2-82.8-42.6-165.6-64-248.4c-0.5-1.7-0.9-3.5-1.7-6.5c0,87.5,0,173.8,0,260.3c-22.3,0-44.6,0-67.2,0c0-110.7,0-221.5,0-332.6
		c34.2,0,68.6,0,103.5,0c19.8,79.5,39.7,159.2,59.5,238.9c0.4,0.1,0.7,0.1,1.1,0.2C1018.3,279.6,1038.1,199.9,1058,120.1z"/>
	<path class="st0" d="M1239.3,453.4c0-111.4,0-222.2,0-333.3c1.5-0.1,2.7-0.3,4-0.3c40.7,0,81.3,0,122,0.1c18.1,0,35.9,2.5,52.8,9.4
		c28.5,11.8,42.5,33.9,44.9,64.1c3.6,45.1-24,71.6-56.7,81.7c-1.7,0.5-3.4,1.2-5.9,2c5,1.8,9.3,3.2,13.5,4.9
		c68.1,28.1,64,106.4,32.4,139.6c-15,15.7-33.6,24.4-54.5,28.1c-13.2,2.3-26.8,3.6-40.2,3.7c-35.8,0.5-71.7,0.2-107.5,0.2
		C1242.6,453.7,1241.1,453.5,1239.3,453.4z M1307.4,394.9c16.7,0,32.9,1.1,48.9-0.3c24.5-2.1,38.6-17.3,40.2-41
		c1.7-24.5-10.1-40.4-33.9-45.4c-4.1-0.9-8.2-1.6-12.3-1.6c-14.2-0.2-28.5-0.1-42.9-0.1C1307.4,336.2,1307.4,365.7,1307.4,394.9z
		 M1307.4,250.4c15.1,0,29.8,0.2,44.4-0.1c4.6-0.1,9.3-1,13.8-2.1c18.5-4.8,27.3-18,26.4-39.2c-0.7-16.2-10.6-27.8-28.8-29.7
		c-18.1-1.9-36.5-1.2-54.8-1.7c-0.3,0-0.5,0.4-1,0.7C1307.4,202.1,1307.4,226,1307.4,250.4z"/>
	<path class="st0" d="M1515,286c0.4-33.5,3.6-66.7,16.1-98.3c11.2-28.5,28.6-51.9,57.2-65.2c37.4-17.5,98.3-15.6,133.1,24.3
		c16.6,19.1,26.6,41.4,32,65.8c11.8,53.4,11.7,106.8-3.4,159.6c-7.2,25.3-19.7,47.8-40.6,64.5c-23.2,18.6-50.3,24.4-79.3,22.7
		c-52.3-3.2-83.9-32.9-101.1-80.3C1518.2,349.1,1515.3,317.8,1515,286z M1692.2,277.8c-0.8-9.1-2-26.9-4.3-44.5
		c-2.1-15.9-6.5-31.3-15.8-44.8c-17.6-25.6-51.3-25.4-67.6,1c-5.6,9-9.8,19.5-12.1,29.8c-9.3,41.8-8.9,84-1.9,126
		c2.6,15.2,7.2,29.8,17.2,42c15.9,19.3,44.3,19.7,60.8,0.9c7.1-8,11.3-17.6,14.5-27.7C1690.5,336.5,1691.5,311.6,1692.2,277.8z"/>
	<path class="st0" d="M772.1,296.3c-0.1,24.1-3.4,57.8-16.2,89.9c-11.8,29.6-30.2,53.9-61,65.1c-40.1,14.6-79.4,12.6-114.9-13.4
		c-21.8-16-33.9-38.9-42-64.1c-11.4-35.6-13.4-72.2-11.4-109.2c1.5-29.1,6.4-57.6,18.6-84.4c14.9-32.7,38-56.4,74-64.4
		c38.3-8.5,74.4-3.6,105,23.2c18.9,16.5,29.6,38.3,36.8,61.9C769.5,228.6,772.2,257.2,772.1,296.3z M595.1,286.3
		c2,19.4,3.4,38.8,6.1,58c2.2,15.6,7.1,30.5,17.3,43.1c15.1,18.6,42.3,19.8,59.1,2.7c6.8-6.9,11.1-15.3,14.4-24.3
		c5.6-15.5,8.2-31.5,9.4-47.9c2.3-31.5,2.1-62.9-4.4-94c-3.1-14.6-7.7-28.7-17.7-40.2c-16.7-19.3-45.4-19.1-60.7,1.3
		c-5.9,7.8-10.2,17.2-13.2,26.6C597.3,235.8,596.7,261,595.1,286.3z"/>
	<path class="st0" d="M479.4,230c-26.3,0-50.7,0-75.1,0c-1.1-9.4-2.2-18.6-3.4-27.8c-0.3-2.3-1-4.5-1.7-6.8
		c-4.7-15.6-14-26.6-31.2-28.2c-17.7-1.7-32.2,4-41.5,20c-8.3,14.3-11,30.3-12.6,46.4c-3,31.4-3.2,62.9-0.1,94.3
		c1.6,15.5,4.3,30.7,11,44.9c9.7,20.5,25.8,29.2,48.2,26.3c13.5-1.8,23.1-9.1,27.4-21.8c3-8.9,3.8-18.5,5.5-27.8
		c0.4-2.3,0.3-4.6,0.4-7.2c24.9,0,49.4,0,74.5,0c0.2,17.1-2.2,33.6-8.3,49.4c-14.3,36.9-42.6,56.4-80.5,63.1
		c-23,4.1-46.2,4-68.7-3.2c-34.1-11-55.2-35.3-68.3-67.5c-11.5-28.5-15.5-58.4-16.3-88.9c-0.9-35.2,1.6-69.9,13.2-103.5
		c7.8-22.4,19.4-42.4,37.9-57.7c23.6-19.6,51.4-25.6,81.3-24.4c14.7,0.6,29.2,2.7,43.1,7.9c33.3,12.4,51.9,37.3,59.4,71
		C476.7,201.7,477.5,215.6,479.4,230z"/>
	<path d="M750.8,962.2c-9.1,0-17.7,0-26.7,0c0-48.4,0-96.5,0-144.6c-0.3,0-0.7-0.1-1-0.1c-7.3,37.8-14.6,75.5-22,113.7
		c-7.9,0-15.6,0.1-23.2-0.2c-1,0-2.6-2.2-2.9-3.6c-4.8-23.8-9.3-47.7-14-71.5c-2.4-12.5-4.8-25-8.3-37.4c0,47.7,0,95.5,0,143.6
		c-9.4,0-18.3,0-27.4,0c0-59.3,0-118.4,0-178.1c12.7,0,25.3-0.1,37.9,0.1c0.9,0,2.4,2,2.7,3.3c5.4,27.8,10.8,55.5,16.1,83.3
		c1.9,9.9,3.8,19.8,6.7,29.7c7.4-38.6,14.9-77.2,22.3-116.1c13.2,0,26.3,0,39.8,0C750.8,843.4,750.8,902.6,750.8,962.2z"/>
	<path d="M1070.5,837.8c-9.9,0-19.5,0-29.2,0c-0.4-3.2-0.8-6.1-1.3-9.1c-2.2-12.6-9.3-20.3-21.8-22.9c-10-2.1-19.9-1.9-29.4,2.1
		c-8.5,3.5-13.9,9.7-14.8,19.1c-1,9.9,2.7,18.1,11.6,22.5c8.1,4,17,6.6,25.6,9.5c10.2,3.5,20.8,5.9,30.8,10
		c20.3,8.5,29.4,24.5,29,46.2c-0.4,20.9-10.4,35.6-29.2,43.7c-21.3,9.2-43.5,9.9-65.4,2.4c-23.1-7.9-33.8-25.7-36.5-49
		c-0.4-3.5-0.5-7-0.8-10.9c9.8,0,19.4,0,29.2,0c0.5,3.7,0.8,7.6,1.5,11.5c3.1,16.4,15.1,27,31.7,28.2c8.4,0.6,16.7,0.3,24.5-3
		c9.4-3.9,15-10.7,16-21.1c0.9-9.3-2.5-16.9-10.8-20.7c-9.2-4.2-19-6.9-28.5-10.2c-10.3-3.6-21.2-6.3-30.9-11.1
		c-22.5-11.1-32.4-35.4-25.1-59.5c5-16.4,17-25.9,32.6-31.1c16.5-5.5,33.4-6,50.3-1.8C1056.2,789.1,1071.5,809.9,1070.5,837.8z"/>
	<path d="M783.4,784.1c9.6,0,18.2,0,27.7,0c0,2,0,3.9,0,5.8c0,37.1-0.1,74.3,0.1,111.4c0,6.3,0.6,12.7,1.7,18.8
		c2,11.2,8.9,18.3,20.2,19.9c7,1,14.4,1.3,21.3,0.3c14-2,21.1-10.7,22.5-25.8c0.4-4.5,0.6-9,0.6-13.5c0-36.8,0-73.6,0-110.4
		c0-2,0-4,0-6.3c9.2,0,18.1,0,27.6,0c0,1.8,0,3.6,0,5.4c0,37.6,0.2,75.3-0.1,112.9c-0.1,8.6-0.9,17.3-2.8,25.7
		c-4.3,19-16.7,30.6-35.5,35.2c-13.1,3.2-26.4,3.5-39.7,0.9c-26.2-5.1-41.1-22.3-43-49.6c-0.4-5.8-0.6-11.6-0.6-17.5
		c-0.1-35.6,0-71.3,0-106.9C783.4,788.5,783.4,786.5,783.4,784.1z"/>
	<path d="M1346.7,905c9.6,0,18.7,0,27.8,0c3.9,20.7-10.9,46.5-32,54.6c-27.7,10.7-69.8,8.7-85.7-37.1
		c-11.7-33.9-11.6-68.6,0.2-102.5c15.4-43.9,55.9-47.1,83.7-36.8c19.6,7.2,28.9,23.1,32.3,42.9c0.8,4.9,1,9.8,1.4,15.1
		c-10.1,0-19.3,0-28.5,0c-1-5.3-1.5-10.4-2.9-15.3c-3.9-13.9-12.7-21.4-25.9-22.6c-12.8-1.2-23.8,5-30.2,17.1
		c-5.6,10.7-7.4,22.4-8.2,34.2c-1.3,18.7-1.3,37.3,3.4,55.6c1.1,4.2,2.6,8.3,4.5,12.1c6.9,13.8,20.2,20.2,35.4,17.2
		c13.8-2.7,22.8-13.3,24.2-28.6C1346.2,909.1,1346.4,907.3,1346.7,905z"/>
	<path d="M1094.1,962c0-8.1,0-15.9,0-24c15.9,0,31.5,0,47.5,0c0-43.1,0-85.8,0-129.1c-15.6,0-31.3,0-47.4,0c0-8.5,0-16.4,0-24.6
		c41.1,0,82.1,0,123.5,0c0,8,0,15.9,0,24.2c-15.8,0-31.4,0-47.4,0c0,43.2,0,85.9,0,129.2c15.6,0,31.4,0,47.4,0c0,8.3,0,16.1,0,24.3
		C1176.7,962,1135.6,962,1094.1,962z"/>
	<path d="M1307.4,394.9c0-29.2,0-58.8,0-88.4c14.5,0,28.7-0.1,42.9,0.1c4.1,0.1,8.3,0.8,12.3,1.6c23.7,5,35.6,21,33.9,45.4
		c-1.7,23.7-15.8,38.9-40.2,41C1340.3,396,1324.1,394.9,1307.4,394.9z"/>
	<path d="M1307.4,250.4c0-24.4,0-48.3,0-72.2c0.4-0.3,0.7-0.7,1-0.7c18.3,0.4,36.7-0.2,54.8,1.7c18.2,1.9,28.1,13.6,28.8,29.7
		c0.9,21.2-7.9,34.4-26.4,39.2c-4.5,1.2-9.2,2.1-13.8,2.1C1337.1,250.6,1322.5,250.4,1307.4,250.4z"/>
	<path d="M1692.2,277.8c-0.6,33.8-1.7,58.7-9.2,82.8c-3.1,10.1-7.4,19.6-14.5,27.7c-16.5,18.8-44.9,18.4-60.8-0.9
		c-10-12.2-14.7-26.9-17.2-42c-7.1-42.1-7.5-84.3,1.9-126c2.3-10.4,6.5-20.8,12.1-29.8c16.3-26.4,50-26.6,67.6-1
		c9.3,13.5,13.7,28.9,15.8,44.8C1690.2,250.9,1691.3,268.7,1692.2,277.8z"/>
	<path d="M595.1,286.3c1.6-25.3,2.2-50.5,10.2-74.7c3.1-9.3,7.4-18.8,13.2-26.6c15.3-20.4,44-20.6,60.7-1.3
		c10,11.5,14.6,25.6,17.7,40.2c6.6,31.1,6.8,62.5,4.4,94c-1.2,16.3-3.7,32.4-9.4,47.9c-3.3,9-7.6,17.4-14.4,24.3
		c-16.8,17-44,15.8-59.1-2.7c-10.2-12.5-15.1-27.5-17.3-43.1C598.4,325.1,597,305.7,595.1,286.3z"/>
</g>
</svg>
